<svg id="visual" viewBox="0 0 900 600" width="900" height="600" xmlns="http://www.w3.org/2000/svg" xmlns:xlink="http://www.w3.org/1999/xlink" version="1.1"><path d="M0 175L82 97L164 187L245 241L327 223L409 127L491 115L573 181L655 163L736 97L818 145L900 193L900 0L818 0L736 0L655 0L573 0L491 0L409 0L327 0L245 0L164 0L82 0L0 0Z" fill="#00cc8e"></path><path d="M0 277L82 193L164 223L245 313L327 277L409 169L491 187L573 259L655 253L736 199L818 181L900 235L900 191L818 143L736 95L655 161L573 179L491 113L409 125L327 221L245 239L164 185L82 95L0 173Z" fill="#00b98a"></path><path d="M0 325L82 319L164 343L245 373L327 397L409 295L491 343L573 373L655 391L736 259L818 253L900 415L900 233L818 179L736 197L655 251L573 257L491 185L409 167L327 275L245 311L164 221L82 191L0 275Z" fill="#00a784"></path><path d="M0 517L82 529L164 499L245 517L327 499L409 559L491 535L573 523L655 517L736 493L818 559L900 547L900 413L818 251L736 257L655 389L573 371L491 341L409 293L327 395L245 371L164 341L82 317L0 323Z" fill="#00957c"></path><path d="M0 601L82 601L164 601L245 601L327 601L409 601L491 601L573 601L655 601L736 601L818 601L900 601L900 545L818 557L736 491L655 515L573 521L491 533L409 557L327 497L245 515L164 497L82 527L0 515Z" fill="#038373"></path></svg>